<?xml version="1.0" encoding="UTF-8"?>
<!DOCTYPE svg PUBLIC "-//W3C//DTD SVG 1.1//EN" "http://www.w3.org/Graphics/SVG/1.1/DTD/svg11.dtd">
<!-- Creator: CorelDRAW 2020 (64-Bit) -->
<svg xmlns="http://www.w3.org/2000/svg" xml:space="preserve" width="226.689mm" height="226.689mm" version="1.1" style="shape-rendering:geometricPrecision; text-rendering:geometricPrecision; image-rendering:optimizeQuality; fill-rule:evenodd; clip-rule:evenodd"
viewBox="0 0 22654.63 22654.63"
 xmlns:xlink="http://www.w3.org/1999/xlink"
 xmlns:xodm="http://www.corel.com/coreldraw/odm/2003">
 <defs>
  <style type="text/css">
   <![CDATA[
    .str0 {stroke:#15499A;stroke-width:317.3;stroke-miterlimit:22.9256}
    .str1 {stroke:#15499A;stroke-width:141.02;stroke-miterlimit:22.9256}
    .str19 {stroke:#332C2B;stroke-width:70.52;stroke-miterlimit:22.9256}
    .str2 {stroke:#15499A;stroke-width:70.52;stroke-miterlimit:22.9256}
    .str16 {stroke:#332C2B;stroke-width:105.76;stroke-linecap:round;stroke-linejoin:round;stroke-miterlimit:22.9256}
    .str18 {stroke:#1D1819;stroke-width:52.89;stroke-linecap:round;stroke-linejoin:round;stroke-miterlimit:22.9256}
    .str3 {stroke:#332C2B;stroke-width:141.02;stroke-linecap:round;stroke-linejoin:round;stroke-miterlimit:22.9256}
    .str17 {stroke:#1D1819;stroke-width:141.02;stroke-linecap:round;stroke-linejoin:round;stroke-miterlimit:22.9256}
    .str20 {stroke:#1D1819;stroke-width:141.02;stroke-linecap:round;stroke-linejoin:round;stroke-miterlimit:22.9256}
    .str15 {stroke:#332C2B;stroke-width:105.76;stroke-linecap:round;stroke-linejoin:round;stroke-miterlimit:22.9256}
    .str10 {stroke:#332C2B;stroke-width:105.76;stroke-linecap:round;stroke-linejoin:round;stroke-miterlimit:22.9256}
    .str7 {stroke:#332C2B;stroke-width:105.76;stroke-linecap:round;stroke-linejoin:round;stroke-miterlimit:22.9256}
    .str11 {stroke:#332C2B;stroke-width:105.76;stroke-linecap:round;stroke-linejoin:round;stroke-miterlimit:22.9256}
    .str4 {stroke:#332C2B;stroke-width:105.76;stroke-linecap:round;stroke-linejoin:round;stroke-miterlimit:22.9256}
    .str13 {stroke:#332C2B;stroke-width:105.76;stroke-linecap:round;stroke-linejoin:round;stroke-miterlimit:22.9256}
    .str12 {stroke:#332C2B;stroke-width:105.76;stroke-linecap:round;stroke-linejoin:round;stroke-miterlimit:22.9256}
    .str14 {stroke:#332C2B;stroke-width:105.76;stroke-linecap:round;stroke-linejoin:round;stroke-miterlimit:22.9256}
    .str9 {stroke:#332C2B;stroke-width:105.76;stroke-linecap:round;stroke-linejoin:round;stroke-miterlimit:22.9256}
    .str5 {stroke:#332C2B;stroke-width:105.76;stroke-linecap:round;stroke-linejoin:round;stroke-miterlimit:22.9256}
    .str6 {stroke:#332C2B;stroke-width:105.76;stroke-linecap:round;stroke-linejoin:round;stroke-miterlimit:22.9256}
    .str8 {stroke:#332C2B;stroke-width:105.76;stroke-linecap:round;stroke-linejoin:round;stroke-miterlimit:22.9256}
    .str21 {stroke:#1D1819;stroke-width:70.52;stroke-linecap:round;stroke-linejoin:round;stroke-miterlimit:22.9256}
    .fil1 {fill:none}
    .fil0 {fill:#FEFEFE}
    .fil3 {fill:#FEFEFE}
    .fil8 {fill:#EEEEEF}
    .fil2 {fill:#FFF000}
    .fil5 {fill:#057444}
    .fil4 {fill:#009B4C}
    .fil7 {fill:#1D1819}
    .fil6 {fill:#15499A;fill-rule:nonzero}
    .fil9 {fill:#1D1819;fill-rule:nonzero}
   ]]>
  </style>
   <clipPath id="id0">
    <path d="M8251.91 14358.53c-45.22,949.62 -101.63,1672.4 -169.23,2168.34 337.37,247.57 1213.48,210.6 2628.31,-110.97 560.34,144.17 976.37,123.04 1248.06,-63.41 133.19,-61.09 513.95,-34.67 1142.28,79.26 780.05,151.59 1305.36,213.26 1575.93,184.96 -342.63,-977.57 -637.02,-1749.11 -883.15,-2314.66 -775.8,29.49 -1597.27,20.69 -2464.37,-26.42 -271.61,-4.87 -1297.55,22.77 -3077.82,82.91z"/>
   </clipPath>
    <clipPath id="id1">
     <path d="M13700.86 14305.39l-19.08 97.6 822.88 2220.21c-297.15,-3.58 -764.9,-67.39 -1403.34,-191.46 -628.33,-113.93 -1009.1,-140.35 -1142.28,-79.26 -271.7,186.45 -687.73,207.58 -1248.06,63.41 -401.91,91.34 -760.28,159.7 -1075.24,205.12l-1273.11 -4.57 81.14 -2264.38c1662.19,-55.66 2624.27,-81.14 2885.96,-76.45 832.45,45.23 1622.83,55.15 2371.13,29.77z"/>
    </clipPath>
    <clipPath id="id2">
     <path d="M8251.91 14358.53c-45.22,949.62 -101.63,1672.4 -169.23,2168.34 337.37,247.57 1213.48,210.6 2628.31,-110.97 560.34,144.17 976.37,123.04 1248.06,-63.41 133.19,-61.09 513.95,-34.67 1142.28,79.26 780.05,151.59 1305.36,213.26 1575.93,184.96 -342.63,-977.57 -637.02,-1749.11 -883.15,-2314.66 -775.8,29.49 -1597.27,20.69 -2464.37,-26.42 -271.61,-4.87 -1297.55,22.77 -3077.82,82.91z"/>
    </clipPath>
    <clipPath id="id3">
     <path d="M12374.09 15627.72c-1316.77,-825.81 -2313.49,-1421.22 -2990.18,-1786.22 37.64,213.41 3.15,413.95 -103.45,601.64 673.81,1305.36 1047.51,2080.98 1121.12,2326.87 759.48,-305 1376.46,-542.98 1850.93,-713.92 138.43,-136.69 178.96,-279.48 121.58,-428.37z"/>
    </clipPath>
   <clipPath id="id4">
    <path d="M10039.21 4647l2561.78 0 0 685.96 -2561.78 0 0 -685.96z"/>
   </clipPath>
   <clipPath id="id5">
    <path d="M11972.15 14411.41c-220.65,-640.88 -824.42,-1321.28 -1811.31,-2041.21 -86.39,144.69 -151.59,281.27 -195.63,409.77 360.75,777.87 564.35,1674.24 610.82,2689.1 598.58,-103.09 1071.01,-36.1 1417.28,200.96 276.96,-224.4 685.92,-293.15 1226.9,-206.24 6.67,-131.88 22.52,-228.81 47.55,-290.8 -446.28,-539.78 -878.15,-793.64 -1295.6,-761.59z"/>
   </clipPath>
 </defs>
 <g id="Layer_x0020_1">
  <metadata id="CorelCorpID_0Corel-Layer"/>
  <path class="fil0 str0" d="M11327.31 158.65c6168.29,0 11168.66,5000.37 11168.66,11168.66 0,6168.29 -5000.37,11168.66 -11168.66,11168.66 -6168.29,0 -11168.66,-5000.37 -11168.66,-11168.66 0,-6168.29 5000.37,-11168.66 11168.66,-11168.66z"/>
  <path class="fil1 str1" d="M11327.31 2936.49c4634.12,0 8390.82,3756.7 8390.82,8390.82 0,4634.12 -3756.7,8390.82 -8390.82,8390.82 -4634.12,0 -8390.82,-3756.7 -8390.82,-8390.82 0,-4634.12 3756.7,-8390.82 8390.82,-8390.82z"/>
  <path class="fil1 str2" d="M11327.31 3801.84c1018.25,0 1845.1,3315.72 1858.27,7426.02l-3716.54 0c13.17,-4110.29 840.02,-7426.02 1858.27,-7426.02zm1856.56 7870.24c-44.51,3996.13 -858.64,7180.71 -1856.56,7180.71 -997.92,0 -1812.05,-3184.59 -1856.56,-7180.71l3713.12 0z"/>
  <path class="fil1 str2" d="M10689.8 19054.62c-2668.97,-632.1 -4196.72,-4319.22 -4281.92,-7382.55l2520.87 0c47.22,2899.98 652.24,5743.64 1761.04,7382.55zm-4284.51 -7826.77c18.87,-1134.71 223.37,-2400.83 610.52,-3561.95 679.9,320.64 1379.43,595.29 2092.19,822.73 -118.96,888.01 -179.05,1813.5 -182.19,2739.22l-2520.52 0zm715.67 -3862.34c225.81,-615.11 504.69,-1193.66 836.16,-1698.67 553.29,147.76 1114.01,258.33 1678.38,331.73 -206.04,675.94 -366.31,1408.08 -482.04,2171.91 -692.54,-223.33 -1372.09,-492.02 -2032.51,-804.97zm1028.91 -1975.77c642.11,-870.18 1459.77,-1471.23 2450.64,-1576.46 -342.7,537.11 -631.15,1173.2 -866.88,1878.06 -532.3,-66.71 -1061.31,-167.23 -1583.75,-301.6z"/>
  <path class="fil1 str2" d="M9484.06 18948.85c-3450.4,-477.6 -5981.06,-4387.14 -5999.23,-7490.05 -9.02,-1541.32 576.6,-3374.88 1599.1,-4863.98 492.23,317.08 999.97,607.33 1520.27,870.13 -1461.92,4200.5 -129.39,9997.51 2879.85,11483.9zm-4216.09 -12611.71c329.19,-443.78 698.66,-851.56 1103.81,-1205.1 388.8,159.67 783.41,299.74 1182.43,420.21 -337.57,492.87 -616.68,1036.09 -840.38,1613.47 -494.54,-251.11 -977.39,-527.44 -1445.85,-828.57zm1381.6 -1434.54c794.55,-619.67 1712.68,-1031.13 2724.03,-1110.47 -636.5,392.31 -1175.51,898.79 -1623.1,1487.98 -371.19,-108.51 -738.56,-234.38 -1100.93,-377.51z"/>
  <path class="fil1 str2" d="M11946.09 19054.62c2668.97,-632.1 4196.72,-4319.22 4281.92,-7382.55l-2520.87 0c-47.22,2899.98 -652.24,5743.64 -1761.04,7382.55zm4284.51 -7826.77c-18.87,-1134.71 -223.37,-2400.83 -610.52,-3561.95 -679.9,320.64 -1379.43,595.29 -2092.19,822.73 118.96,888.01 179.05,1813.5 182.19,2739.22l2520.52 0zm-715.67 -3862.34c-225.81,-615.11 -504.69,-1193.66 -836.16,-1698.67 -553.29,147.76 -1114.01,258.33 -1678.38,331.73 206.04,675.94 366.31,1408.08 482.04,2171.91 692.54,-223.33 1372.09,-492.02 2032.51,-804.97zm-1028.91 -1975.77c-642.11,-870.18 -1459.77,-1471.23 -2450.64,-1576.46 342.7,537.11 631.15,1173.2 866.88,1878.06 532.3,-66.71 1061.31,-167.23 1583.75,-301.6z"/>
  <path class="fil1 str2" d="M13151.82 18948.85c3450.4,-477.6 5981.06,-4387.14 5999.23,-7490.05 9.02,-1541.32 -576.6,-3374.88 -1599.1,-4863.98 -492.23,317.08 -999.97,607.33 -1520.27,870.13 1461.92,4200.5 129.39,9997.51 -2879.85,11483.9zm4216.09 -12611.71c-329.19,-443.78 -698.66,-851.56 -1103.81,-1205.1 -388.8,159.67 -783.41,299.74 -1182.43,420.21 337.57,492.87 616.68,1036.09 840.38,1613.47 494.54,-251.11 977.39,-527.44 1445.85,-828.57zm-1381.6 -1434.54c-794.55,-619.67 -1712.68,-1031.13 -2724.03,-1110.47 636.5,392.31 1175.51,898.79 1623.1,1487.98 371.19,-108.51 738.56,-234.38 1100.93,-377.51z"/>
  <g>
   <path class="fil1 str3" d="M16288.65 16731.66c427.54,117.59 794.73,-121.64 1101.55,-717.8 -472.76,-65.42 -841.19,132.02 -1105.27,592.3 254.97,-418.81 239.11,-854.21 -47.59,-1306.23 -360.15,466.89 -397.96,912.44 -113.55,1336.66 -293.49,346.66 -642.56,734.01 -1047.25,1162.08 66.46,69.97 157.24,98.17 272.35,84.62 499.63,-593.59 812.87,-977.45 939.77,-1151.63zm535.52 -9610.2c-236.55,-28.66 -447.65,-162.25 -574.81,-363.76 -127.16,-201.51 -156.89,-449.55 -80.95,-675.41 499.43,190.79 716.68,584.77 655.76,1039.17zm248.43 730.35c-138.89,-518.6 -461.07,-788.84 -966.53,-810.74 185.44,506.01 507.62,776.25 966.53,810.74zm58.35 -22.55c-264.91,-467.63 -224.14,-884.67 122.31,-1251.14 222.73,490.93 181.97,907.98 -122.31,1251.14zm329.63 979.41c-121.88,-522.86 -435.07,-803.47 -939.55,-841.86 168.83,511.8 482.02,792.41 939.55,841.86zm59.06 -20.63c-249.5,-476.02 -195.14,-891.52 163.09,-1246.49 206.59,497.94 152.22,913.44 -163.09,1246.49zm179.22 1021.58c-81.26,-530.7 -371.9,-834.6 -871.92,-911.73 128.91,523.27 419.56,827.18 871.92,911.73zm60.47 -16.02c-212.1,-493.83 -125.9,-903.9 258.61,-1230.23 167.62,512.38 81.42,922.45 -258.61,1230.23zm55.17 1055.56c-4.72,-536.85 -249.03,-879.11 -732.95,-1026.77 52.96,536.31 297.27,878.58 732.95,1026.77zm62.14 -7.22c-139.48,-519.04 4.34,-912.63 431.46,-1180.76 92.82,531.05 -51,924.63 -431.46,1180.76zm-13.93 1069.13c56.84,-566.71 -157,-955.27 -641.52,-1165.69 -6.81,571.59 207.04,960.16 641.52,1165.69zm65.22 -0.59c-84.87,-563.16 109.45,-961.98 582.93,-1196.5 35.13,570.54 -159.18,969.37 -582.93,1196.5zm-105.49 988.51c75.09,-564.58 -126.09,-959.84 -603.57,-1185.78 -25.24,571.08 175.95,966.34 603.57,1185.78zm65.21 1.51c-66.65,-565.59 140.42,-957.95 621.23,-1177.06 16.7,571.38 -190.38,963.73 -621.23,1177.06zm-356.43 1053.09c176.78,-555.81 50.82,-990.07 -377.88,-1302.77 -128.89,571.23 -2.93,1005.49 377.88,1302.77zm63.9 13.12c37.47,-582.04 312.73,-940.76 825.8,-1076.13 -87.68,579 -362.95,937.7 -825.8,1076.13zm-503.96 911.96c275.58,-514.04 231.27,-964.02 -132.91,-1349.94 -231.32,537.96 -187.02,987.94 132.91,1349.94zm60.42 24.59c143.42,-565.33 479.73,-867.56 1008.91,-906.69 -192.23,553.13 -528.53,855.37 -1008.91,906.69zm-450.69 904.34c198.13,-548.56 562.43,-816.4 1092.89,-803.48 -245.5,531.65 -609.8,799.48 -1092.89,803.48zm-57.71 -30.4c324.62,-484.57 324.62,-936.72 0,-1356.47 -282.92,512.71 -282.92,964.86 0,1356.47z"/>
   <path id="1" class="fil2" d="M16288.65 16731.66c427.54,117.59 794.73,-121.64 1101.55,-717.8 -472.76,-65.42 -841.19,132.02 -1105.27,592.3 254.97,-418.81 239.11,-854.21 -47.59,-1306.23 -360.15,466.89 -397.96,912.44 -113.55,1336.66 -293.49,346.66 -642.56,734.01 -1047.25,1162.08 66.46,69.97 157.24,98.17 272.35,84.62 499.63,-593.59 812.87,-977.45 939.77,-1151.63zm535.52 -9610.2c-236.55,-28.66 -447.65,-162.25 -574.81,-363.76 -127.16,-201.51 -156.89,-449.55 -80.95,-675.41 499.43,190.79 716.68,584.77 655.76,1039.17zm248.43 730.35c-138.89,-518.6 -461.07,-788.84 -966.53,-810.74 185.44,506.01 507.62,776.25 966.53,810.74zm58.35 -22.55c-264.91,-467.63 -224.14,-884.67 122.31,-1251.14 222.73,490.93 181.97,907.98 -122.31,1251.14zm329.63 979.41c-121.88,-522.86 -435.07,-803.47 -939.55,-841.86 168.83,511.8 482.02,792.41 939.55,841.86zm59.06 -20.63c-249.5,-476.02 -195.14,-891.52 163.09,-1246.49 206.59,497.94 152.22,913.44 -163.09,1246.49zm179.22 1021.58c-81.26,-530.7 -371.9,-834.6 -871.92,-911.73 128.91,523.27 419.56,827.18 871.92,911.73zm60.47 -16.02c-212.1,-493.83 -125.9,-903.9 258.61,-1230.23 167.62,512.38 81.42,922.45 -258.61,1230.23zm55.17 1055.56c-4.72,-536.85 -249.03,-879.11 -732.95,-1026.77 52.96,536.31 297.27,878.58 732.95,1026.77zm62.14 -7.22c-139.48,-519.04 4.34,-912.63 431.46,-1180.76 92.82,531.05 -51,924.63 -431.46,1180.76zm-13.93 1069.13c56.84,-566.71 -157,-955.27 -641.52,-1165.69 -6.81,571.59 207.04,960.16 641.52,1165.69zm65.22 -0.59c-84.87,-563.16 109.45,-961.98 582.93,-1196.5 35.13,570.54 -159.18,969.37 -582.93,1196.5zm-105.49 988.51c75.09,-564.58 -126.09,-959.84 -603.57,-1185.78 -25.24,571.08 175.95,966.34 603.57,1185.78zm65.21 1.51c-66.65,-565.59 140.42,-957.95 621.23,-1177.06 16.7,571.38 -190.38,963.73 -621.23,1177.06zm-356.43 1053.09c176.78,-555.81 50.82,-990.07 -377.88,-1302.77 -128.89,571.23 -2.93,1005.49 377.88,1302.77zm63.9 13.12c37.47,-582.04 312.73,-940.76 825.8,-1076.13 -87.68,579 -362.95,937.7 -825.8,1076.13zm-503.96 911.96c275.58,-514.04 231.27,-964.02 -132.91,-1349.94 -231.32,537.96 -187.02,987.94 132.91,1349.94zm60.42 24.59c143.42,-565.33 479.73,-867.56 1008.91,-906.69 -192.23,553.13 -528.53,855.37 -1008.91,906.69zm-450.69 904.34c198.13,-548.56 562.43,-816.4 1092.89,-803.48 -245.5,531.65 -609.8,799.48 -1092.89,803.48zm-57.71 -30.4c324.62,-484.57 324.62,-936.72 0,-1356.47 -282.92,512.71 -282.92,964.86 0,1356.47z"/>
  </g>
  <g>
   <g id="_1649645474768">
    <g>
     <path class="fil1 str4" d="M6248.76 6058.86c-158.15,403.64 38.29,635.46 553.82,638.04 156.24,-59.92 213.62,-214.56 180.64,-302.5 -96.41,-181.79 146.9,-629.54 -439.96,-481.85 -117.64,-7.26 -189.32,9.08 -294.49,146.31z"/>
     <path id="1" class="fil3" d="M6248.76 6058.86c-158.15,403.64 38.29,635.46 553.82,638.04 156.24,-59.92 213.62,-214.56 180.64,-302.5 -96.41,-181.79 146.9,-629.54 -439.96,-481.85 -117.64,-7.26 -189.32,9.08 -294.49,146.31z"/>
    </g>
    <g>
     <path class="fil1 str4" d="M6265.82 5969.78c-348.48,742.61 0.85,1091.57 710.89,625 -273.04,5.33 -377.59,-113.73 -313.67,-357.17 -223.68,159.84 -359.49,73.1 -397.22,-267.83z"/>
     <path id="1" class="fil4" d="M6265.82 5969.78c-348.48,742.61 0.85,1091.57 710.89,625 -273.04,5.33 -377.59,-113.73 -313.67,-357.17 -223.68,159.84 -359.49,73.1 -397.22,-267.83z"/>
    </g>
   </g>
   <g>
    <g>
     <path class="fil1 str5" d="M5691.13 6820.96c-75.13,426.95 163.3,615.3 669.14,515.82 141.29,-89.66 166.92,-252.59 117.21,-332.27 -130.49,-159.11 19.4,-646.16 -526.63,-385.25 -116.75,16.17 -183.78,46.37 -259.72,201.7z"/>
     <path id="1" class="fil3" d="M5691.13 6820.96c-75.13,426.95 163.3,615.3 669.14,515.82 141.29,-89.66 166.92,-252.59 117.21,-332.27 -130.49,-159.11 19.4,-646.16 -526.63,-385.25 -116.75,16.17 -183.78,46.37 -259.72,201.7z"/>
    </g>
    <g>
     <path class="fil1 str5" d="M5690.22 6730.27c-194.62,796.89 216.86,1069.82 820.52,471.94 -266.58,59.25 -392.63,-36.75 -378.15,-288.02 -187.62,200.94 -337.92,142.81 -442.37,-183.92z"/>
     <path id="1" class="fil4" d="M5690.22 6730.27c-194.62,796.89 216.86,1069.82 820.52,471.94 -266.58,59.25 -392.63,-36.75 -378.15,-288.02 -187.62,200.94 -337.92,142.81 -442.37,-183.92z"/>
    </g>
   </g>
   <g>
    <g>
     <path class="fil1 str6" d="M5249.4 7597.46c-78.9,448.31 171.46,646.09 702.62,541.62 148.36,-94.14 175.28,-265.22 123.06,-348.89 -137.01,-167.06 20.38,-678.49 -552.97,-404.52 -122.58,16.98 -192.98,48.69 -272.71,211.79z"/>
     <path id="1" class="fil3" d="M5249.4 7597.46c-78.9,448.31 171.46,646.09 702.62,541.62 148.36,-94.14 175.28,-265.22 123.06,-348.89 -137.01,-167.06 20.38,-678.49 -552.97,-404.52 -122.58,16.98 -192.98,48.69 -272.71,211.79z"/>
    </g>
    <g>
     <path class="fil1 str6" d="M5248.44 7502.23c-204.35,836.76 227.72,1123.34 861.58,495.56 -279.91,62.22 -412.27,-38.59 -397.07,-302.43 -197.02,211 -354.83,149.96 -464.51,-193.13z"/>
     <path id="1" class="fil4" d="M5248.44 7502.23c-204.35,836.76 227.72,1123.34 861.58,495.56 -279.91,62.22 -412.27,-38.59 -397.07,-302.43 -197.02,211 -354.83,149.96 -464.51,-193.13z"/>
    </g>
   </g>
   <g>
    <g>
     <path class="fil1 str7" d="M4799.1 8425.59c-64.61,480.86 210.58,680.65 771.72,546.39 153.92,-106.69 175.18,-290.05 115.95,-376.89 -153.14,-171.99 -7.69,-723.45 -606.42,-406.85 -129.82,23.4 -203.4,60.21 -281.25,237.36z"/>
     <path id="1" class="fil3" d="M4799.1 8425.59c-64.61,480.86 210.58,680.65 771.72,546.39 153.92,-106.69 175.18,-290.05 115.95,-376.89 -153.14,-171.99 -7.69,-723.45 -606.42,-406.85 -129.82,23.4 -203.4,60.21 -281.25,237.36z"/>
    </g>
    <g>
     <path class="fil1 str7" d="M4793.95 8324.21c-181.39,899.98 291.17,1186.47 939.02,490.44 -295.4,78.39 -440.73,-23.24 -435.97,-304.89 -200.67,233.24 -371.39,175.07 -503.05,-185.55z"/>
     <path id="1" class="fil4" d="M4793.95 8324.21c-181.39,899.98 291.17,1186.47 939.02,490.44 -295.4,78.39 -440.73,-23.24 -435.97,-304.89 -200.67,233.24 -371.39,175.07 -503.05,-185.55z"/>
    </g>
   </g>
   <g>
    <g>
     <path class="fil1 str8" d="M4436.16 9282.1c-30.22,506.19 272.04,693.18 846.56,509.92 152.19,-123.08 160.2,-315.84 91.76,-401.79 -172.91,-167.44 -63.87,-753.47 -663.49,-377.24 -133.5,34.4 -207.36,78.46 -274.83,269.11z"/>
     <path id="1" class="fil3" d="M4436.16 9282.1c-30.22,506.19 272.04,693.18 846.56,509.92 152.19,-123.08 160.2,-315.84 91.76,-401.79 -172.91,-167.44 -63.87,-753.47 -663.49,-377.24 -133.5,34.4 -207.36,78.46 -274.83,269.11z"/>
    </g>
    <g>
     <path class="fil1 str8" d="M4422.98 9176.84c-119.59,952.05 395.07,1214.19 1016.6,438.69 -301.85,104.5 -461.17,9.8 -477.95,-284.13 -191.16,258.6 -373.58,211.15 -538.65,-154.56z"/>
     <path id="1" class="fil4" d="M4422.98 9176.84c-119.59,952.05 395.07,1214.19 1016.6,438.69 -301.85,104.5 -461.17,9.8 -477.95,-284.13 -191.16,258.6 -373.58,211.15 -538.65,-154.56z"/>
    </g>
   </g>
   <g>
    <g>
     <path class="fil1 str9" d="M4152.24 10264.99c68.03,527.83 416.32,661.41 972.77,359.87 132.81,-156.72 103.29,-357.05 15.88,-432.25 -211.09,-138.76 -213.5,-764.36 -758.02,-258.95 -130.9,61.62 -198.43,121.52 -230.62,331.32z"/>
     <path id="1" class="fil3" d="M4152.24 10264.99c68.03,527.83 416.32,661.41 972.77,359.87 132.81,-156.72 103.29,-357.05 15.88,-432.25 -211.09,-138.76 -213.5,-764.36 -758.02,-258.95 -130.9,61.62 -198.43,121.52 -230.62,331.32z"/>
    </g>
    <g>
     <path class="fil1 str9" d="M4118.01 10159.04c63.26,1005.07 645.27,1174.49 1134.16,253.12 -290.76,166.91 -473.58,100.47 -548.47,-199.3 -146.42,304.09 -343.81,290.91 -585.68,-53.82z"/>
     <path id="1" class="fil4" d="M4118.01 10159.04c63.26,1005.07 645.27,1174.49 1134.16,253.12 -290.76,166.91 -473.58,100.47 -548.47,-199.3 -146.42,304.09 -343.81,290.91 -585.68,-53.82z"/>
    </g>
   </g>
   <g>
    <g>
     <path class="fil1 str10" d="M4113.57 11246.81c160.62,507.38 527.09,577.03 1021.2,181.53 102.89,-177.81 38.29,-369.7 -61.08,-428.2 -232.36,-99.11 -345.75,-714.34 -791.94,-120.32 -117.9,83.88 -173.71,154.81 -168.17,367z"/>
     <path id="1" class="fil3" d="M4113.57 11246.81c160.62,507.38 527.09,577.03 1021.2,181.53 102.89,-177.81 38.29,-369.7 -61.08,-428.2 -232.36,-99.11 -345.75,-714.34 -791.94,-120.32 -117.9,83.88 -173.71,154.81 -168.17,367z"/>
    </g>
    <g>
     <path class="fil1 str10" d="M4061.09 11148.61c240.62,977.88 843.46,1041.33 1161.07,47.83 -256.52,215.85 -448.23,182.91 -575.14,-98.81 -90.13,325.26 -286.73,347.3 -585.93,50.98z"/>
     <path id="1" class="fil4" d="M4061.09 11148.61c240.62,977.88 843.46,1041.33 1161.07,47.83 -256.52,215.85 -448.23,182.91 -575.14,-98.81 -90.13,325.26 -286.73,347.3 -585.93,50.98z"/>
    </g>
   </g>
   <g>
    <g>
     <path class="fil1 str11" d="M4135.33 12205.81c259.02,464.91 632.01,459.73 1036.87,-26.74 65.17,-194.82 -36.57,-369.88 -145.64,-407.29 -247.5,-50.54 -481.86,-630.58 -800,40.78 -98.69,105.8 -139.16,186.48 -91.23,393.25z"/>
     <path id="1" class="fil3" d="M4135.33 12205.81c259.02,464.91 632.01,459.73 1036.87,-26.74 65.17,-194.82 -36.57,-369.88 -145.64,-407.29 -247.5,-50.54 -481.86,-630.58 -800,40.78 -98.69,105.8 -139.16,186.48 -91.23,393.25z"/>
    </g>
    <g>
     <path class="fil1 str11" d="M4064.24 12120.12c431.65,909.86 1034.98,851.23 1147.11,-185.75 -208.08,262.86 -402.5,269.01 -583.27,18.43 -23.15,336.71 -211.34,397.7 -563.84,167.32z"/>
     <path id="1" class="fil4" d="M4064.24 12120.12c431.65,909.86 1034.98,851.23 1147.11,-185.75 -208.08,262.86 -402.5,269.01 -583.27,18.43 -23.15,336.71 -211.34,397.7 -563.84,167.32z"/>
    </g>
   </g>
   <g>
    <g>
     <path class="fil1 str12" d="M4260.54 13163.81c315.99,428.24 685.3,375.72 1025.07,-158.25 39.89,-201.51 -83.26,-362.23 -196.2,-385.49 -251.92,-18.68 -558.06,-564.26 -788.33,142.09 -84.45,117.48 -114.35,202.65 -40.53,401.65z"/>
     <path id="1" class="fil3" d="M4260.54 13163.81c315.99,428.24 685.3,375.72 1025.07,-158.25 39.89,-201.51 -83.26,-362.23 -196.2,-385.49 -251.92,-18.68 -558.06,-564.26 -788.33,142.09 -84.45,117.48 -114.35,202.65 -40.53,401.65z"/>
    </g>
    <g>
     <path class="fil1 str12" d="M4179.14 13087.85c543.75,847.65 1134.75,712.85 1114.22,-329.98 -172.99,287.17 -365.06,317.97 -576.21,92.38 19.83,336.92 -159.1,421.32 -538.01,237.6z"/>
     <path id="1" class="fil4" d="M4179.14 13087.85c543.75,847.65 1134.75,712.85 1114.22,-329.98 -172.99,287.17 -365.06,317.97 -576.21,92.38 19.83,336.92 -159.1,421.32 -538.01,237.6z"/>
    </g>
   </g>
   <g>
    <g>
     <path class="fil1 str13" d="M4476.04 13998.67c355.37,440.74 745.48,368.08 1082.26,-214.93 33.22,-215.99 -105,-381.2 -226.1,-400.76 -268.6,-8.37 -618.85,-574.28 -831.39,186.95 -84.41,128.71 -112.3,220.59 -24.77,428.74z"/>
     <path id="1" class="fil0" d="M4476.04 13998.67c355.37,440.74 745.48,368.08 1082.26,-214.93 33.22,-215.99 -105,-381.2 -226.1,-400.76 -268.6,-8.37 -618.85,-574.28 -831.39,186.95 -84.41,128.71 -112.3,220.59 -24.77,428.74z"/>
    </g>
    <g>
     <path class="fil1 str13" d="M4386.07 13921.64c616.55,876.11 1238.54,705.92 1169.17,-401.52 -170.76,313.11 -373.5,354.6 -608.19,124.45 36.43,357.2 -149.89,455.06 -560.99,277.07z"/>
     <path id="1" class="fil4" d="M4386.07 13921.64c616.55,876.11 1238.54,705.92 1169.17,-401.52 -170.76,313.11 -373.5,354.6 -608.19,124.45 36.43,357.2 -149.89,455.06 -560.99,277.07z"/>
    </g>
   </g>
   <g>
    <g>
     <path class="fil1 str14" d="M4847.68 14895.73c407.73,392.81 785.7,271.9 1046.85,-348.68 5.93,-218.45 -151.88,-365.06 -274.47,-369.32 -267.54,25.31 -685.87,-492.3 -801.46,289.54 -67.64,138.26 -83.81,232.91 29.07,428.46z"/>
     <path id="1" class="fil0" d="M4847.68 14895.73c407.73,392.81 785.7,271.9 1046.85,-348.68 5.93,-218.45 -151.88,-365.06 -274.47,-369.32 -267.54,25.31 -685.87,-492.3 -801.46,289.54 -67.64,138.26 -83.81,232.91 29.07,428.46z"/>
    </g>
    <g>
     <path class="fil1 str14" d="M4748.77 14830.57c721.36,792.06 1317.15,545.36 1109.74,-544.68 -130.25,332.01 -326.18,398.55 -587.84,199.59 80.84,349.82 -91.76,470.23 -521.9,345.08z"/>
     <path id="1" class="fil4" d="M4748.77 14830.57c721.36,792.06 1317.15,545.36 1109.74,-544.68 -130.25,332.01 -326.18,398.55 -587.84,199.59 80.84,349.82 -91.76,470.23 -521.9,345.08z"/>
    </g>
   </g>
   <g>
    <g>
     <path class="fil1 str15" d="M5257.66 15724.9c436.14,361 803.92,211.99 1017.64,-426.48 -10.53,-218.28 -178.93,-352.6 -301.49,-347.61 -264.87,45.37 -720.97,-439.29 -777.39,349.03 -57.03,142.96 -66.04,238.56 61.24,425.06z"/>
     <path id="1" class="fil0" d="M5257.66 15724.9c436.14,361 803.92,211.99 1017.64,-426.48 -10.53,-218.28 -178.93,-352.6 -301.49,-347.61 -264.87,45.37 -720.97,-439.29 -777.39,349.03 -57.03,142.96 -66.04,238.56 61.24,425.06z"/>
    </g>
    <g>
     <path class="fil1 str15" d="M5154.13 15667.36c778.92,735.53 1354.46,444.68 1065.6,-626.66 -104.88,340.88 -295.26,421.96 -571.15,243.27 106.94,342.74 -56.1,475.81 -494.45,383.39z"/>
     <path id="1" class="fil4" d="M5154.13 15667.36c778.92,735.53 1354.46,444.68 1065.6,-626.66 -104.88,340.88 -295.26,421.96 -571.15,243.27 106.94,342.74 -56.1,475.81 -494.45,383.39z"/>
    </g>
   </g>
   <g>
    <g>
     <path class="fil1 str16" d="M5673.31 16520.18c436.14,361 880.32,158.62 1094.03,-479.85 -10.53,-218.28 -147.01,-377.31 -269.57,-372.33 -264.87,45.37 -758.4,-442.57 -814.83,345.75 -57.03,142.96 -136.91,319.92 -9.63,506.42z"/>
     <path id="1" class="fil0" d="M5673.31 16520.18c436.14,361 880.32,158.62 1094.03,-479.85 -10.53,-218.28 -147.01,-377.31 -269.57,-372.33 -264.87,45.37 -758.4,-442.57 -814.83,345.75 -57.03,142.96 -136.91,319.92 -9.63,506.42z"/>
    </g>
    <g>
     <path class="fil1 str16" d="M7295.9 17872.63c167.6,13.98 282.19,5.17 343.74,-26.44 -414.67,-392.92 -740.78,-775.45 -978.34,-1147.58 116.71,-248.74 300.93,-583.67 -5.29,-1002.15 -113.58,380.29 -240.51,511.62 -528.84,335.82 130.84,395.8 -43.68,535.05 -523.55,417.78 262.86,282.65 573.11,404.29 930.75,364.9 259.67,380.66 513.51,733.22 761.52,1057.67z"/>
     <path id="1" class="fil4" d="M7295.9 17872.63c167.6,13.98 282.19,5.17 343.74,-26.44 -414.67,-392.92 -740.78,-775.45 -978.34,-1147.58 116.71,-248.74 300.93,-583.67 -5.29,-1002.15 -113.58,380.29 -240.51,511.62 -528.84,335.82 130.84,395.8 -43.68,535.05 -523.55,417.78 262.86,282.65 573.11,404.29 930.75,364.9 259.67,380.66 513.51,733.22 761.52,1057.67z"/>
    </g>
   </g>
  </g>
  <path class="fil5" d="M20109.04 7945.12c-84.16,-214.26 -175.46,-424.5 -273.61,-630.46l0.13 0c102.31,-16.51 278.4,14.04 528.31,91.66 116.86,-251.82 203.23,-427.22 259.13,-526.2 -199.08,-74.9 -378.89,-130.43 -539.41,-166.59 -151.67,235.5 -267.61,368.18 -347.83,398.07 -123.54,-244.47 -256.82,-482.61 -399.32,-713.87l0.23 -0.12c159.5,-224.96 147.02,-484.7 43.52,-731.28 -59.54,40.33 -82.11,59.43 -148.05,113.05 51.76,145 53.66,305.41 1.48,454.61l-0.19 0.15c-84.25,-130.81 -171.48,-259.31 -261.62,-385.43 118.08,-114.9 300.9,-254.52 548.53,-418.92 47.46,-36.44 102.12,-31.15 163.95,15.87 8.78,9.53 18.48,6.45 29.07,-9.26 -22.84,-110.35 -95.11,-168.52 -216.82,-174.51 -90.27,70.65 -297.98,220.96 -623.15,450.93l-0.24 0.36c-97.87,-132.04 -198.93,-261.35 -303.08,-387.82 128.31,-92.82 324.09,52.55 447.9,152.41 70.3,-52.56 102.83,-76.89 155.63,-114.9 -215.9,-214.69 -461.8,-293.07 -707.98,-163.03l-0.21 0.5c-73.96,-86.77 -149.39,-172.14 -226.26,-256.08 215.25,-494.32 225.88,-878.52 31.79,-1152.56 -100.98,50.16 -214.67,141.82 -341.1,275 169.1,225.23 227.73,469.89 175.89,734.01l-0.39 0.44c-165.84,-173.81 -337.94,-341.15 -515.97,-501.57 1.77,-92.39 18.31,-182.35 49.61,-269.89 -66.01,-32.08 -156.07,-6.64 -270.2,76.31l0.05 1c-135.69,-114.98 -418.99,-5.47 -546.86,84.28 1460.07,1152.21 2561.41,2780.79 3083.35,4712.08 0.98,-6.44 439.45,-141.16 480.26,-153.29 236.3,-74.86 472.79,-149.09 709.49,-222.68 -164.82,-274.4 -340.21,-470.95 -526.19,-589.65 -67.12,-19.85 -220.43,-17.39 -459.86,7.39zm-14276.78 -3780.67c13.6,-10.65 25.39,-19.39 35.36,-26.22 -58.92,-81.49 -117.65,-161.82 -176.16,-241 -3.37,-4.62 -6.78,-9.23 -10.23,-13.85 -271.27,-366.62 -538.21,-708.49 -800.8,-1025.6 -18.92,154.92 -51.54,273.91 -97.84,356.97 338.41,332.88 544.52,592.6 618.35,779.15 -42.72,33.19 -85.75,67.49 -129.08,102.88 -249.32,-173.87 -587.2,-145.64 -804.19,67.36 -209.63,205.77 -248.93,527.51 -98.82,776.77 -93,98.35 -184.06,198.65 -273.06,300.9l-0.21 -0.15c-249.81,-182.37 -428.89,-325.63 -537.24,-429.8 62.19,175.91 92.15,308.12 89.89,396.63 -14.48,78.17 27.83,111.67 126.93,100.48 61.91,5.95 118.39,42.91 169.43,110.87 -303.54,365.97 -581.51,755.15 -830.8,1164.95 -188.71,74.69 -363.99,165.92 -525.86,273.67 -39.9,23.08 -65.03,2.37 -75.36,-62.14 44.97,-260.63 72.73,-434.7 83.3,-522.23 -118.16,35.97 -188.67,129.4 -211.54,280.28 -6.46,259.33 -58.9,361.56 -157.33,306.73 -132.53,-50.6 -228.15,-97.32 -286.85,-140.14 3.66,-161.94 -52.76,-195.43 -169.23,-100.48 -48.69,94.87 -170.32,140.7 -364.89,137.49 620.43,298.32 1157.15,548.17 1610.16,749.53l0.07 0.07c656.81,-1345.39 1631.93,-2481.53 2816,-3343.1zm5962.97 -2255.72c-194.86,-13.82 -392.62,-18.56 -593.31,-14.23 258.27,-244.16 452.51,-294.4 582.65,-150.69 25,48.47 28.55,103.44 10.65,164.92zm-888.68 -1.43c-22.42,1.45 -44.87,3.02 -67.37,4.69 -40.68,-557.72 -78.98,-920.52 -114.92,-1088.35 -113.25,148.65 -211.1,181.7 -330.53,210.23 -59.57,57.35 100.49,34.41 132.22,276.31 36.93,271.69 50.08,448.3 51.96,621.86l0.08 0.07c-142.67,11.93 -284.58,27.09 -425.69,45.33 -35.85,-198.23 -54.52,-406.99 -56,-626.3 -105.23,149.4 -206.6,249.88 -304.08,301.44 -71.78,49.31 -67.38,75.74 13.22,79.32 66.35,3.26 99.73,137.14 94.07,281.67 -284.98,44.68 -566.36,102.11 -843.52,171.74 -17.39,-151.05 -46.95,-314.97 -88.68,-491.75 -202.12,298.68 -254.12,453.36 -156,464.06 20.66,19.87 32.77,47.39 36.33,82.57 -198.78,54.76 -395.27,115.8 -589.2,182.93l-0.07 -0.45c-93.83,-34.8 -203.01,-284 -327.53,-747.62 -62.47,122.28 -126.82,213.08 -193.03,272.36 -43.37,56.07 -27.29,90.22 48.25,102.46 36.95,39.36 -16.37,135 -159.97,286.91 -77.56,98.92 -108.27,409.07 -74.03,555.27 -9.81,26.21 -34.05,57.94 -72.7,95.19 17.62,34.06 30.66,65.42 39.13,94.07 7.58,27.61 11.42,54.7 11.52,81.25 -2.52,7.77 -5.25,15.38 -8.14,22.88 1130.71,-507.67 2374.29,-801.82 3666.43,-843.38 262.39,-8.44 522.55,-5.02 780.06,9.54 19.7,-66.51 84.01,-274.6 89.84,-349.16 32.55,-269.23 -53.34,-450.64 -257.73,-544.2 -391.67,-7.69 -689.64,142.01 -893.9,449.06zm-9016.57 5361.02c22.05,390.94 -144.85,1020.7 368.65,1111.12l-2.07 5.98c-30.66,86.05 -60.15,172.69 -88.49,259.9 -12.04,36.41 -21,64.38 -26.86,83.89 -390.97,-123.54 -766.44,-261.04 -1126.39,-412.48 87.05,158.22 134.64,278.97 142.78,362.25 18.18,110.07 71.94,136.51 161.3,79.33 562.23,154.9 972.96,276.54 1232.18,364.9 60.19,21.41 99.74,79.16 97.93,143.02 -1.81,63.86 -44.55,119.28 -105.85,137.26 -166.04,-8.22 -379.34,-62.87 -639.9,-163.95 118.58,187.84 167.94,318.29 148.11,391.35 72.58,-14.91 166.02,-9.62 280.28,15.86 279.7,40.13 465.88,22.46 588.59,-182.38 136.37,-227.66 2.5,-472.24 -202.2,-595.24 -107.85,-35.57 -168.04,-53.87 -213.23,-66.25 113.16,-367.96 248.48,-723.98 404.13,-1067.14 -347.09,-144.66 -680.2,-304.96 -1018.95,-467.44zm915.17 -135.15c44.13,-85.14 87.07,-165.3 128.79,-240.47 -61.84,-78.81 -184.95,-39.94 -369.34,116.6 78.23,54.84 157.86,96.46 238.8,124.88l1.75 -1.01zm2172.03 -2783.15c-122.7,110.56 -247.7,229.36 -375.03,356.44l-6.96 2.29c-95.51,-105.97 -88.71,-268.87 15.29,-366.51 103.98,-97.63 266.95,-94.16 366.7,7.79zm2865.41 -1980.78c58.23,0 105.44,47.21 105.44,105.44 0,58.24 -47.21,105.45 -105.44,105.45 -58.24,0 -105.45,-47.21 -105.45,-105.45 0,-58.23 47.21,-105.44 105.45,-105.44zm5183.33 -560.46c63.52,0 115.02,51.5 115.02,115.02 0,63.52 -51.5,115.02 -115.02,115.02 -63.52,0 -115.02,-51.5 -115.02,-115.02 0,-63.52 51.5,-115.02 115.02,-115.02zm7171.36 5061.44c90.17,0 163.28,73.1 163.28,163.28 0,90.17 -73.1,163.28 -163.28,163.28 -90.17,0 -163.28,-73.1 -163.28,-163.28 0,-90.17 73.1,-163.28 163.28,-163.28zm238.66 1304.22c90.17,0 163.28,73.1 163.28,163.28 0,90.17 -73.1,163.28 -163.28,163.28 -90.17,0 -163.28,-73.1 -163.28,-163.28 0,-90.17 73.1,-163.28 163.28,-163.28zm-17521.65 -2537.6c67.94,-49.98 163.52,-35.42 213.5,32.51 49.98,67.94 35.42,163.52 -32.51,213.5 -67.94,49.98 -163.52,35.42 -213.5,-32.51 -49.98,-67.94 -35.42,-163.52 32.51,-213.5zm255.84 -450.82c67.94,-49.98 163.52,-35.43 213.5,32.51 49.98,67.94 35.43,163.52 -32.51,213.5 -67.94,49.98 -163.52,35.42 -213.5,-32.51 -49.98,-67.94 -35.42,-163.52 32.51,-213.5zm4462.7 -3892.96c84.34,0 152.7,68.37 152.7,152.7 0,84.34 -68.37,152.7 -152.7,152.7 -84.34,0 -152.7,-68.37 -152.7,-152.7 0,-84.34 68.37,-152.7 152.7,-152.7zm-473.23 211.53c84.34,0 152.7,68.37 152.7,152.7 0,84.34 -68.37,152.7 -152.7,152.7 -84.34,0 -152.7,-68.37 -152.7,-152.7 0,-84.34 68.37,-152.7 152.7,-152.7zm-570.2 276.19l107.42 -67.59c14.77,-9.3 34.45,-4.83 43.75,9.95l147.86 234.99c9.3,14.77 4.83,34.45 -9.95,43.75l-107.42 67.59c-14.78,9.3 -34.46,4.83 -43.75,-9.95l-147.87 -234.98c-9.29,-14.78 -4.82,-34.46 9.96,-43.76zm-327.87 185.09l107.42 -67.59c14.77,-9.3 34.45,-4.83 43.75,9.95l147.86 234.99c9.3,14.77 4.83,34.45 -9.95,43.75l-107.42 67.59c-14.78,9.3 -34.46,4.83 -43.75,-9.95l-147.87 -234.98c-9.29,-14.78 -4.82,-34.46 9.96,-43.76zm-375.91 1667.15l1.21 -0.15 -4.37 3.05c98.7,152.15 179.09,260.48 241.17,324.95 276.67,-185.65 563.59,-356.97 859.65,-512.94 -188.12,-4.64 -351.84,-72.98 -491.14,-205.04l-1.01 0.6 0.66 -0.91c-59.57,-59.46 -105.34,-113.55 -137.31,-162.26 -33.07,159.75 -96.16,281.32 -189.26,364.72l-0.97 1.25c-28.82,18.68 -57.52,37.51 -86.15,56.48 -27.84,-1.43 -54.11,-24.06 -78.76,-67.92 -220.97,-331.38 -358.47,-552.61 -412.49,-663.69 1.99,-24.69 18.73,-42.98 50.24,-54.88 -24.08,-55.77 -64.41,-81.77 -120.96,-78 -98.62,24.57 -212.32,16.64 -341.11,-23.8 330.08,489.34 566.94,828.86 710.6,1018.53zm4066.17 -1102.49c84.34,0 152.7,68.37 152.7,152.7 0,84.34 -68.37,152.7 -152.7,152.7 -84.34,0 -152.7,-68.37 -152.7,-152.7 0,-84.34 68.37,-152.7 152.7,-152.7zm-523.55 105.76c84.34,0 152.7,68.37 152.7,152.7 0,84.34 -68.37,152.7 -152.7,152.7 -84.34,0 -152.7,-68.37 -152.7,-152.7 0,-84.34 68.37,-152.7 152.7,-152.7zm-801.19 227.41c84.34,0 152.7,68.37 152.7,152.7 0,84.34 -68.37,152.7 -152.7,152.7 -84.34,0 -152.7,-68.37 -152.7,-152.7 0,-84.34 68.37,-152.7 152.7,-152.7zm4848.6 -1556.17c-118.93,81.64 -225.18,124.84 -318.76,129.59 -91.47,2.79 -93.24,44.21 -5.29,124.27 -34.24,55.63 -147.06,115.56 -338.46,179.81 -80.8,21.28 -146.53,101.8 -197.19,241.57l0.43 0.37 -0.61 -0.08c-86.44,141.54 -187.02,278.18 -305.7,394.49 313.7,30.11 622.87,77.4 926.74,140.37 103.31,-392.04 182.96,-809.52 238.83,-1210.39zm2687.84 2952.2c-143.3,-196.74 -200.06,-412.53 -170.3,-647.37 -775.58,-477.07 -1627.65,-832.28 -2530.48,-1044.81l0.05 -0.16c100.94,-393.96 193.3,-777.95 272.02,-1177.89 -119.16,-165.04 -115.66,-233.78 10.5,-206.24 125.92,9.71 246.66,-10.56 362.25,-60.82 -86.58,359.56 -175.37,730.17 -266.38,1111.81l-0.54 0.59c230.19,63.85 456.98,136.41 679.99,217.35l0.02 -0.79c78.26,-32.35 68.84,-120.14 -28.27,-263.36 126.69,-32.13 280.93,-94.71 462.73,-187.74 -28.74,105.69 -95.11,285.75 -199.09,540.17l-0.6 0.55c467.35,184.16 917.06,405.52 1345.64,660.73 16.41,-310.45 -149.35,-547.37 -495.51,-726.82 121.23,-221.83 178.52,-376.95 171.87,-465.38 401.56,354.68 567.51,787.21 497.86,1297.61l-0.36 0.69c138.3,86.49 274.3,176.54 407.84,270.07 -456.73,83.5 -598.79,201.15 -519.24,681.81zm1115.83 -1815.22c53.13,-26.15 107.77,-12.05 163.94,42.3 -4.45,171.69 -79.36,310.06 -224.75,415.14 -39.48,-50.61 -79.14,-104.37 -119,-161.3 95.22,-93.98 155.16,-192.7 179.81,-296.14zm-370.19 -248.54c53.13,-26.15 107.77,-12.05 163.94,42.3 -4.45,171.69 -79.36,310.06 -224.75,415.14 -39.48,-50.61 -79.14,-104.37 -119,-161.3 95.22,-93.98 155.16,-192.7 179.81,-296.14zm-3696.73 -1209.7l169.24 -169.24 169.24 169.25 -169.24 169.23 -169.24 -169.24zm-516.94 -81.97l169.24 -169.24 169.24 169.25 -169.24 169.23 -169.24 -169.24zm1531.82 2066.41c84.34,0 152.7,68.37 152.7,152.7 0,84.34 -68.37,152.7 -152.7,152.7 -84.34,0 -152.7,-68.37 -152.7,-152.7 0,-84.34 68.37,-152.7 152.7,-152.7zm-449.52 -149.41c84.34,0 152.7,68.37 152.7,152.7 0,84.34 -68.37,152.7 -152.7,152.7 -84.34,0 -152.7,-68.37 -152.7,-152.7 0,-84.34 68.37,-152.7 152.7,-152.7zm-11666.07 4987.29l237.71 -51.66 51.66 237.7 -237.7 51.66 -51.67 -237.7z"/>
  <path class="fil6" d="M1335.6 11375.97l-467.75 20.93 -11.19 -250.23 1292.37 -57.82 19.34 432.3c5.81,129.67 -27.78,234.06 -100.43,313.2 -72.64,79.14 -170.32,121.45 -293.63,126.97 -123.59,5.53 -224.66,-27.89 -303.48,-100.26 -79.12,-72.34 -121.28,-173.35 -127.08,-303.02l-8.15 -182.07zm196.01 -8.77l8.14 182.07c2.51,56.04 24.72,98.16 66.33,125.44 41.29,27.59 93.15,39.84 155.25,37.07 63.32,-2.83 115.07,-19.72 154.96,-50.95 39.6,-30.91 58.27,-74.85 55.76,-130.91l-8.14 -182.06 -432.31 19.34zm30.51 1373.72l-57.12 -391.28 -371.79 54.29 68.44 468.7 -193.55 28.26 -104.62 -716.55 1280.08 -186.91 104.36 714.75 -194.45 28.39 -68.18 -466.9 -327.07 47.75 57.13 391.28 -193.24 28.22zm-78.93 828.56c50.43,-10.67 87.77,-31.91 111.39,-63.87 23.9,-32.03 42.59,-84.35 56.36,-156.99 18.25,-139.32 49.51,-247.91 93.48,-325.72 44.27,-77.87 118.36,-127.65 222.79,-149.76 103.53,-21.92 196,-2.43 277.1,58.52 80.79,61 133.59,149.34 158.13,265.33 25.99,122.83 12.19,228.97 -41.4,318.42 -53.91,89.51 -139.4,145.43 -257.08,167.86l-5.43 -0.73 -50.42 -238.23c65.26,-13.81 112.03,-38.9 139.63,-75.42 27.67,-36.23 36.02,-81.71 24.46,-136.29 -9.91,-46.87 -33.36,-80.04 -69.75,-99.62 -36.68,-19.51 -77.99,-24.39 -124.28,-14.6 -43.02,9.1 -75.18,31.41 -96.79,66.97 -21.38,35.22 -41.2,92.41 -58.93,171.18 -14.78,130.83 -46.51,234.25 -95.2,310.27 -48.7,76.02 -125.41,125.11 -230.43,147.34 -108.29,22.93 -201.22,4.15 -278.79,-56.29 -77.58,-60.46 -129.1,-151.53 -155.13,-273.12 -25.13,-120.21 -13.57,-229.6 35.46,-328.92 48.73,-99.29 142.06,-162.12 279.45,-188.09l5.42 0.71 50.55 238.83c-79.21,16.76 -133.08,44.89 -160.95,84.59 -27.92,39.39 -35.39,90.55 -22.14,153.14 11.17,52.81 34.06,89.19 68.73,109.45 34.36,20.31 75.69,25.2 123.76,15.03zm226.56 952.11l-98.9 -308.08 -288.75 16.25 -79.81 -248.6 1343.9 -46.05 79.25 246.87 -1119.59 744.78 -80.09 -249.46 243.98 -155.71zm104.53 -319.25l67.39 209.91 358.03 -228 -1.57 -4.92 -423.85 23.01zm151.02 1681.96l-99.33 -230.29 595.44 -703.66 -3 -4.66 -757.1 326.56 -99.21 -230 1187.86 -512.37 99.21 230 -596.15 704.31 2.88 4.38 757.94 -326.93 99.33 230.29 -1187.86 512.37zm1482.96 386.77l-149.64 -264.44 -954.88 540.32 -123.8 -218.8 954.88 -540.31 -145.76 -257.6 171.02 -96.77 419.21 740.83 -171.03 96.77zm-296.3 564.7l-425.24 297.27 -143.52 -205.3 1059.54 -740.65 221.86 317.38c73.67,105.38 104.1,207.68 91.65,306.3 -12.71,98.8 -68.07,182.64 -165.99,251.09 -54.93,38.4 -111.44,58.65 -169.42,61.45 -58.41,2.72 -115.94,-11.83 -173.33,-43.11 20.36,68.28 17.58,129.42 -8.14,183.65 -25.89,54 -70.82,103.52 -134.94,148.35l-77.05 53.87c-29.57,20.68 -58.21,45.86 -86.08,75.34 -27.87,29.47 -43.21,58.32 -45.8,86.4l-15.4 10.77 -148.73 -212.75c3.85,-27.86 21.55,-56.51 53.47,-85.49 32,-29.38 65.48,-56.13 100.27,-80.45l74.31 -51.95c53.94,-37.71 87.87,-78.07 101.82,-121.12 13.94,-43.04 6.44,-85.53 -22.76,-127.28l-86.53 -123.77zm160.07 -111.89l77.49 110.85c30.75,43.99 67.8,68.42 110.13,72.85 42.75,4.53 88.19,-9.84 136.91,-43.9 49.46,-34.58 80.73,-73.45 93.82,-116.66 13.35,-43.37 4.49,-86.75 -26.09,-130.49l-78.36 -112.09 -313.9 219.43zm728.06 1156.85l-256.34 -301.09 -286.09 243.56 307.06 360.67 -148.94 126.79 -469.42 -551.39 985.04 -838.6 468.25 550.01 -149.63 127.38 -305.88 -359.28 -251.69 214.28 256.34 301.09 -148.7 126.59zm407.6 1192.81l-182.28 -172.26 268.8 -881.73 -4.59 -3.09 -566.36 599.24 -182.04 -172.05 888.58 -940.19 182.05 172.05 -269.2 882.59 4.38 2.88 566.97 -599.9 182.28 172.26 -888.59 940.19zm1756.79 -40.05l-246.61 -177.5 -640.93 890.48 -204.04 -146.86 640.93 -890.48 -240.22 -172.9 114.8 -159.49 690.87 497.26 -114.79 159.49zm323.6 800.98l-342.93 -196.88 -187.06 325.85 410.79 235.83 -97.39 169.63 -628.01 -360.54 644.07 -1121.91 626.45 359.63 -97.84 170.41 -409.21 -234.92 -164.57 286.66 342.93 196.88 -97.23 169.36zm395.63 263.76l-226.54 466.79 -225.35 -109.36 564.42 -1163.03 348.39 169.07c115.68,56.14 192.09,130.64 229.26,222.84 37.05,92.46 29.55,192.65 -22.62,300.13 -29.26,60.29 -68.74,105.52 -118.02,136.21 -49.69,30.83 -107.01,46.15 -172.37,46.79 51.05,49.72 78.41,104.46 82.37,164.36 3.7,59.77 -11.4,124.91 -45.56,195.3l-41.04 84.58c-15.76,32.46 -28.49,68.42 -38.47,107.73 -9.98,39.32 -9.32,71.99 2.1,97.76l-8.2 16.92 -233.53 -113.34c-10.21,-26.19 -8.71,-59.84 5.05,-100.69 13.62,-41.26 29.83,-80.93 48.37,-119.13l39.58 -81.56c28.74,-59.2 38.71,-111 29.91,-155.38 -8.79,-44.38 -36.05,-77.82 -81.88,-100.07l-135.86 -65.93zm85.27 -175.7l121.67 59.04c48.29,23.44 92.54,26.71 131.68,9.97 39.54,-16.88 72.22,-51.58 98.18,-105.05 26.34,-54.29 34.71,-103.47 25.09,-147.58 -9.47,-44.38 -38.35,-77.94 -86.37,-101.25l-123.03 -59.71 -167.22 344.57zm789.62 614.3l-160.66 439.79 -235.27 -85.96 443.9 -1215.11 406.45 148.48c121.91,44.54 205.36,115.71 250.45,213.22 45.09,97.51 46.56,203.94 4.21,319.87 -42.45,116.21 -112.19,196.64 -209.31,241.55 -97.22,45.18 -206.67,45.23 -328.59,0.7l-171.18 -62.54zm67.33 -184.28l171.18 62.54c52.7,19.25 100.12,14.94 141.3,-12.95 41.35,-27.5 72.62,-70.66 93.95,-129.04 21.75,-59.53 26.07,-113.81 12.6,-162.64 -13.3,-48.45 -46.67,-82.59 -99.37,-101.84l-171.18 -62.54 -148.49 406.46zm1021.98 717.88l-314.17 -77.41 -137.64 254.35 -253.51 -62.47 665.8 -1168.3 251.74 62.04 46.75 1343.87 -254.4 -62.69 -4.57 -289.4zm-216.96 -256.47l214.07 52.75 -6.29 -424.42 -5.01 -1.24 -202.77 372.92zm599.72 641.4l195.17 -1278.86 394.5 60.21c133.41,20.36 236.08,87.26 308.09,200.39 71.99,113.14 96.23,247.81 72.34,404.31l-32.3 211.65c-23.92,156.77 -87.23,278.11 -189.6,364.02 -102.38,85.91 -220.3,118.84 -353.7,98.48l-394.5 -60.2zm413.14 -1046.81l-136.01 891.24 146.89 22.42c63.55,9.69 119.91,-13.91 168.83,-71.17 48.93,-57.26 80.86,-135.82 96.14,-235.95l32.58 -213.44c15.1,-98.94 8,-183.14 -21.62,-252.39 -29.61,-69.25 -76.37,-108.59 -139.92,-118.3l-146.89 -22.42zm1612.62 -41.58l-45.48 843.92c-7.9,146.57 -56.15,258.76 -145.06,336.27 -88.62,77.83 -200.74,112.78 -336.11,105.78 -134.74,-7.56 -242.14,-54.66 -321.58,-141.53 -79.42,-87.19 -115.36,-203.62 -107.49,-349.58l45.49 -843.92 249.2 13.43 -45.48 843.92c-4.75,88.13 10.1,156.34 44.23,204.64 34.15,48.31 82.86,74.32 146.15,77.74 64.5,3.47 116,-16.84 154.83,-61.2 39.13,-44.05 60.92,-110.6 65.69,-199.03l45.49 -843.92 250.11 13.48zm1459.9 1201.7l-249.06 20.17 -43.52 -537.41 -415.3 33.64 43.52 537.41 -249.66 20.22 -104.42 -1289.44 249.66 -20.22 45.11 557.06 415.3 -33.63 -45.11 -557.06 249.07 -20.18 104.41 1289.44zm750.58 -425.94l-318.43 57.42 -21.96 288.37 -256.96 46.34 131.52 -1338.25 255.16 -46.01 590.7 1208 -257.85 46.5 -122.18 -262.37zm-302.69 -145.71l216.96 -39.13 -178.82 -384.97 -5.07 0.91 -33.08 423.18zm907.51 -483.68l5.25 -1.51 58.61 -602.23 262.86 -75.64 -132.6 904.36 127.57 443.25 -239.84 69.02 -131.93 -458.4 -581.97 -682.3 263.14 -75.73 368.9 479.19zm1164.64 63.91l-299.67 122.02 38.14 286.68 -241.82 98.47 -148.02 -1336.52 240.13 -97.78 827.7 1059.76 -242.66 98.81 -173.8 -231.44zm-326.27 -79.98l204.19 -83.14 -254.55 -339.68 -4.78 1.95 55.14 420.87zm963.01 -1126.51l-272.31 134.81 486.76 983.26 -225.3 111.53 -486.75 -983.26 -265.25 131.31 -87.19 -176.11 762.86 -377.64 87.18 176.11zm894.4 403.98l-275.78 169.24 84.38 276.63 -222.53 136.57 -363.95 -1294.5 220.97 -135.62 989.42 910.63 -223.3 137.05 -209.21 -200zm-334.95 -25.71l187.9 -115.32 -306.53 -293.64 -4.4 2.7 123.02 406.25zm1600.86 -541.53l-199.11 152.47 -827.6 -405.92 -3.78 4.04 501.28 654.65 -198.87 152.28 -786.5 -1027.11 198.87 -152.28 828.39 406.46 3.54 -3.86 -501.83 -655.37 199.11 -152.47 786.5 1027.11zm233.4 -1748.12l-214.49 215.23 777.15 774.44 -177.45 178.08 -777.15 -774.45 -208.92 209.65 -139.19 -138.71 600.85 -602.94 139.19 138.7zm1448.35 -50.08l-155.04 195.97 -422.84 -334.53 -258.51 326.76 422.83 334.53 -155.41 196.44 -1014.54 -802.65 155.41 -196.45 438.3 346.77 258.52 -326.76 -438.3 -346.76 155.04 -195.97 1014.54 802.65zm220.24 -826.02l-175.76 271.67 195.46 213.16 -141.83 219.21 -886.83 -1010.79 140.84 -217.69 1285.47 394.65 -142.32 219.98 -275.03 -90.18zm-313.26 121.31l119.76 -185.09 -403.22 -132.66 -2.8 4.34 286.25 313.41zm288.15 -986.73l2.52 -4.84 -396.47 -457.08 126.07 -242.75 564.7 718.73 409.32 212.61 -115.04 221.48 -423.32 -219.87 -895.53 -47.56 126.22 -243.01 601.52 62.29zm445.98 -973.55l2.02 -5.07 -439.86 -415.5 101.38 -254.05 633.21 659.17 428.39 170.94 -92.49 231.8 -443.04 -176.79 -895.83 41.51 101.49 -254.33 604.74 2.31zm975.5 -575.01l-77.65 237.18 -1229.44 -402.54 77.65 -237.18 1229.44 402.54zm62.89 -229.01l-1255.16 -313.23 89.72 -359.53c32.67,-130.93 86.99,-225.83 162.28,-284.56 75.28,-58.72 170,-73.83 283.58,-45.49 59.43,14.84 108.79,41.21 148.31,79.51 39.51,38.32 64.09,86.33 73.38,144.28 31.89,-66.43 78.43,-110.14 139.98,-131.35 61.48,-20.92 127.52,-22.56 198.14,-4.94 120.04,29.96 202.22,87.65 246.61,172.81 44.38,85.15 50.38,192.61 18.15,321.77l-104.99 420.74zm-495.44 -381.8l366.31 91.41 44.34 -177.71c13.22,-52.96 8.42,-96.36 -14.24,-130.76 -22.97,-34.49 -63.42,-58.96 -121.38,-73.43 -59.73,-14.9 -109.3,-14.14 -148.13,2.42 -38.83,16.56 -65.81,50.78 -80.64,102.72l-2.13 8.53 -44.13 176.82zm-167.99 -41.92l31.86 -127.69c11.89,-52.67 7.1,-96.07 -13.95,-130.69 -21.35,-34.71 -58.79,-58.74 -112.05,-72.03 -59.72,-14.9 -107.46,-11.5 -142.9,10.28 -35.07,21.56 -59.99,61.29 -74.3,118.67l-29.08 116.51 340.43 84.96zm695.05 -1198.1l-47.17 320.11 266.29 112.81 -38.07 258.31 -1226.34 -551.6 37.8 -256.51 1333.33 -174.41 -38.2 259.21 -287.65 32.09zm-234.66 240.38l32.14 -218.1 -421.9 46.64 -0.75 5.1 390.51 166.37zm571.18 -1577.87l-2.09 249.87 -539.15 -4.51 -3.48 416.65 539.15 4.5 -2.09 250.47 -1293.61 -10.79 2.09 -250.47 558.87 4.67 3.48 -416.65 -558.87 -4.67 2.08 -249.87 1293.62 10.8z"/>
  <g>
   <path class="fil1 str17" d="M8188.48 14221.03c2823.47,-184.4 4720.23,-182.64 5690.28,5.29 425.17,992.46 758.6,1779.79 1000.38,2362.21l-577.72 940.51c-38.29,-10.14 -76.92,-21.64 -115.94,-34.53 -941.89,-349.85 -1782.74,-333.99 -2522.54,47.59 -218.53,155.54 -417.73,141.44 -597.58,-42.3 -184.89,-242.13 -870.61,-219.21 -2057.17,68.75 -262.32,79.08 -452.71,63.21 -571.14,-47.59 -201.54,-389.4 -369.01,-701.41 -502.39,-936.04 26.9,-230.31 183.79,-2318.71 253.82,-2363.88z"/>
   <path id="1" class="fil7" d="M8188.48 14221.03c2823.47,-184.4 4720.23,-182.64 5690.28,5.29 425.17,992.46 758.6,1779.79 1000.38,2362.21l-577.72 940.51c-38.29,-10.14 -76.92,-21.64 -115.94,-34.53 -941.89,-349.85 -1782.74,-333.99 -2522.54,47.59 -218.53,155.54 -417.73,141.44 -597.58,-42.3 -184.89,-242.13 -870.61,-219.21 -2057.17,68.75 -262.32,79.08 -452.71,63.21 -571.14,-47.59 -201.54,-389.4 -369.01,-701.41 -502.39,-936.04 26.9,-230.31 183.79,-2318.71 253.82,-2363.88z"/>
  </g>
  <g>
   <path class="fil1 str17" d="M8251.91 14358.53c-45.22,949.62 -101.63,1672.4 -169.23,2168.34 337.37,247.57 1213.48,210.6 2628.31,-110.97 560.34,144.17 976.37,123.04 1248.06,-63.41 133.19,-61.09 513.95,-34.67 1142.28,79.26 780.05,151.59 1305.36,213.26 1575.93,184.96 -342.63,-977.57 -637.02,-1749.11 -883.15,-2314.66 -775.8,29.49 -1597.27,20.69 -2464.37,-26.42 -271.61,-4.87 -1297.55,22.77 -3077.82,82.91z"/>
  </g>
  <path id="1" class="fil0" d="M8251.91 14358.53c-45.22,949.62 -101.63,1672.4 -169.23,2168.34 337.37,247.57 1213.48,210.6 2628.31,-110.97 560.34,144.17 976.37,123.04 1248.06,-63.41 133.19,-61.09 513.95,-34.67 1142.28,79.26 780.05,151.59 1305.36,213.26 1575.93,184.96 -342.63,-977.57 -637.02,-1749.11 -883.15,-2314.66 -775.8,29.49 -1597.27,20.69 -2464.37,-26.42 -271.61,-4.87 -1297.55,22.77 -3077.82,82.91z"/>
  <g style="clip-path:url(#id0)">
   <g>
    <g>
    </g>
   </g>
   <g style="clip-path:url(#id1)">
    <g>
     <path id="2" class="fil1 str18" d="M8310.66 14461.55c2074.58,-75.9 3861.36,-81.78 5360.34,-17.63"/>
     <path class="fil1 str18" d="M8310.66 14606.33c2098.78,-75.9 3906.39,-81.78 5422.85,-17.63"/>
     <path class="fil1 str18" d="M8310.66 14751.11c2139.08,-75.9 3981.42,-81.78 5526.99,-17.63"/>
     <path class="fil1 str18" d="M8310.66 14895.89c2166.81,-75.9 4033.02,-81.78 5598.64,-17.63"/>
     <path class="fil1 str18" d="M8310.66 15040.67c2179.05,-75.9 4055.8,-81.78 5630.26,-17.63"/>
     <path class="fil1 str18" d="M8310.68 15185.45c2219.26,-75.9 4130.66,-81.78 5734.18,-17.63"/>
     <path class="fil1 str18" d="M8310.66 15405.21c2255.88,-75.9 4198.81,-81.78 5828.77,-17.63"/>
     <path class="fil1 str18" d="M8310.66 15537.35c2290.75,-75.9 4263.7,-81.78 5918.87,-17.63"/>
     <path class="fil1 str18" d="M8310.66 15656.31c2290.75,-75.9 4263.7,-81.78 5918.87,-17.63"/>
     <path class="fil1 str18" d="M8256.87 15771.99c624.48,9.14 1652.31,-18.93 3083.54,-84.2 1669.66,61.92 2632.7,85.49 2889.15,70.71"/>
     <path class="fil1 str18" d="M8256.87 15881.68c624.95,9.14 1653.56,-18.93 3085.86,-84.2 1670.92,61.92 2634.7,85.49 2891.34,70.71"/>
     <path class="fil1 str18" d="M8256.87 15992.46c631.06,9.13 1669.76,-18.93 3116.09,-84.2 1687.29,61.91 2660.51,85.49 2919.66,70.71"/>
     <path class="fil1 str18" d="M8256.87 16096.48c635.3,9.14 1680.97,-18.93 3137.02,-84.2 1698.62,61.92 2678.38,85.49 2939.27,70.71"/>
     <path class="fil1 str18" d="M8256.87 16298.48c649.9,9.14 1719.6,-18.93 3209.11,-84.2 1737.65,61.92 2739.92,85.49 3006.81,70.71"/>
     <path class="fil1 str18" d="M8256.87 16194.48c645.66,9.14 1708.39,-18.93 3188.18,-84.2 1726.32,61.92 2722.05,85.49 2987.2,70.72"/>
     <path class="fil1 str18" d="M8283.27 15287.74c2219.26,-75.9 4130.66,-81.78 5734.18,-17.63"/>
    </g>
   </g>
   <g style="clip-path:url(#id2)">
    <polygon class="fil1" points="13783.19,13884.13 13681.78,14402.99 14510.33,16638.48 8362.63,16616.45 8459.59,13910.57 "/>
   </g>
  </g>
  <g>
   <g>
    <path class="fil1 str17" d="M12374.09 15627.72c-1316.77,-825.81 -2313.49,-1421.22 -2990.18,-1786.22 37.64,213.41 3.15,413.95 -103.45,601.64 673.81,1305.36 1047.51,2080.98 1121.12,2326.87 759.48,-305 1376.46,-542.98 1850.93,-713.92 138.43,-136.69 178.96,-279.48 121.58,-428.37z"/>
   </g>
   <path id="1" class="fil0" d="M12374.09 15627.72c-1316.77,-825.81 -2313.49,-1421.22 -2990.18,-1786.22 37.64,213.41 3.15,413.95 -103.45,601.64 673.81,1305.36 1047.51,2080.98 1121.12,2326.87 759.48,-305 1376.46,-542.98 1850.93,-713.92 138.43,-136.69 178.96,-279.48 121.58,-428.37z"/>
   <g style="clip-path:url(#id3)">
    <g>
     <path id="2" class="fil1 str19" d="M10401.58 16770.01c159.51,-339.55 207.11,-612.77 142.8,-819.69"/>
    </g>
   </g>
   <g>
    <polygon class="fil1 str17" points="9370.31,13813.82 11056.76,13479.45 12374.09,15627.72 10517.87,16151.27 "/>
    <polygon id="1" class="fil7" points="9370.31,13813.82 11056.76,13479.45 12374.09,15627.72 10517.87,16151.27 "/>
   </g>
  </g>
  <g>
   <polygon class="fil1 str17" points="11353.37,5639.88 11564.91,5639.88 12281.47,5639.88 12051.43,5946.81 11564.91,5946.81 11353.37,5946.81 11307.11,5946.81 11014.92,5946.81 10609.05,5946.81 10379,5639.88 11014.92,5639.88 11307.11,5639.88 "/>
   <polygon id="1" class="fil0" points="11353.37,5639.88 11564.91,5639.88 12281.47,5639.88 12051.43,5946.81 11564.91,5946.81 11353.37,5946.81 11307.11,5946.81 11014.92,5946.81 10609.05,5946.81 10379,5639.88 11014.92,5639.88 11307.11,5639.88 "/>
  </g>
  <g>
   <polygon class="fil1 str17" points="10239.72,5332.96 12400.49,5332.96 12400.49,5639.88 10239.72,5639.88 "/>
   <polygon id="1" class="fil0" points="10239.72,5332.96 12400.49,5332.96 12400.49,5639.88 10239.72,5639.88 "/>
  </g>
  <g>
   <polygon class="fil1 str20" points="11336.77,3185.38 12775.97,4441.21 9864.23,4441.21 "/>
   <polygon id="1" class="fil8" points="11336.77,3185.38 12775.97,4441.21 9864.23,4441.21 "/>
  </g>
  <g>
   <polygon class="fil1 str17" points="10039.21,4441.21 12600.99,4441.21 12600.99,4647 10039.21,4647 "/>
   <polygon id="1" class="fil0" points="10039.21,4441.21 12600.99,4441.21 12600.99,4647 10039.21,4647 "/>
  </g>
  <g>
   <polygon class="fil1 str17" points="10039.21,4647 12600.99,4647 12600.99,5332.96 10039.21,5332.96 "/>
  </g>
  <polygon id="1" class="fil8" points="10039.21,4647 12600.99,4647 12600.99,5332.96 10039.21,5332.96 "/>
  <g style="clip-path:url(#id4)">
   <g>
    <g>
     <path id="2" class="fil9" d="M11925.29 4717.51l-1210.36 0 0 -141.03 1210.36 0 33.32 70.52 -33.32 70.52zm0 -141.03c18.4,0 33.32,31.58 33.32,70.52 0,38.94 -14.92,70.52 -33.32,70.52l0 -141.03zm-33.32 756.47l0 -685.96 66.64 0 0 685.96 -33.32 70.52 -33.32 -70.52zm66.64 0c0,38.94 -14.92,70.52 -33.32,70.52 -18.4,0 -33.32,-31.58 -33.32,-70.52l66.64 0zm-1243.68 -70.52l1210.36 0 0 141.03 -1210.36 0 -33.32 -70.52 33.32 -70.52zm0 141.03c-18.4,0 -33.32,-31.58 -33.32,-70.52 0,-38.94 14.92,-70.52 33.32,-70.52l0 141.03zm33.32 -756.47l0 685.96 -66.64 0 0 -685.96 33.32 -70.52 33.32 70.52zm-66.64 0c0,-38.94 14.92,-70.52 33.32,-70.52 18.4,0 33.32,31.58 33.32,70.52l-66.64 0z"/>
     <polygon id="3" class="fil8" points="10714.93,4647 11925.29,4647 11925.29,5332.96 10714.93,5332.96 "/>
    </g>
   </g>
  </g>
  <path class="fil7" d="M11184.73 2355.59c223.92,0 405.43,181.52 405.43,405.43 0,223.92 -181.52,405.43 -405.43,405.43 -46.58,0 -91.32,-7.89 -132.99,-22.35 204.95,-7.71 368.75,-176.25 368.75,-383.09 0,-206.84 -163.8,-375.38 -368.75,-383.09 41.66,-14.46 86.41,-22.35 132.99,-22.35z"/>
  <g>
   <polygon class="fil1 str17" points="10609.05,5946.81 12051.43,5946.81 12051.43,6150.86 10609.05,6150.86 "/>
   <polygon id="1" class="fil0" points="10609.05,5946.81 12051.43,5946.81 12051.43,6150.86 10609.05,6150.86 "/>
  </g>
  <g>
   <polygon class="fil1 str17" points="10609.05,6150.86 12051.43,6150.86 12051.43,6917.68 10609.05,6917.68 "/>
   <polygon id="1" class="fil0" points="10609.05,6150.86 12051.43,6150.86 12051.43,6917.68 10609.05,6917.68 "/>
  </g>
  <g>
   <polygon class="fil1 str17" points="10609.05,6917.68 12051.43,6917.68 12051.43,7060.46 10609.05,7060.46 "/>
   <polygon id="1" class="fil0" points="10609.05,6917.68 12051.43,6917.68 12051.43,7060.46 10609.05,7060.46 "/>
  </g>
  <g>
   <polygon class="fil1 str17" points="10609.05,7060.46 12051.43,7060.46 12051.43,7827.28 10609.05,7827.28 "/>
   <polygon id="1" class="fil0" points="10609.05,7060.46 12051.43,7060.46 12051.43,7827.28 10609.05,7827.28 "/>
  </g>
  <g>
   <polygon class="fil1 str17" points="10609.05,7827.28 12051.43,7827.28 12051.43,8038.81 10609.05,8038.81 "/>
   <polygon id="1" class="fil0" points="10609.05,7827.28 12051.43,7827.28 12051.43,8038.81 10609.05,8038.81 "/>
  </g>
  <g>
   <polygon class="fil1 str17" points="11701.12,8038.81 10959.36,8038.81 10609.05,8038.81 10704.24,8472.46 10959.36,8472.46 11701.12,8472.46 11956.24,8472.46 12051.43,8038.81 "/>
   <polygon id="1" class="fil7" points="11701.12,8038.81 10959.36,8038.81 10609.05,8038.81 10704.24,8472.46 10959.36,8472.46 11701.12,8472.46 11956.24,8472.46 12051.43,8038.81 "/>
  </g>
  <g>
   <path class="fil9" d="M10674.55 9001.74l0 -141.03 1311.38 0 0 141.03 -1311.38 0zm0 -141.03l0 141.03c-39.05,0 -70.71,-31.58 -70.71,-70.52 0,-38.94 31.66,-70.52 70.71,-70.52zm-619.32 141.03l-40.88 -128.04 40.88 -12.99 619.32 0 0 141.03 -619.32 0zm0 -141.03l0 141.03c-39.05,0 -70.71,-31.58 -70.71,-70.52 0,-38.94 31.66,-70.52 70.71,-70.52zm608.12 -445.77l40.88 -12.99 40.88 128.04 -649 458.76 -81.77 -115.05 649 -458.76zm81.77 115.05l-81.77 -115.05c31.85,-22.52 75.99,-15.01 98.57,16.75 22.58,31.76 15.05,75.78 -16.8,98.3zm1211.13 -128.04l40.88 12.99 -40.88 128.04 -1252.01 0 0 -141.03 1252.01 0zm0 141.03l0 -141.03c39.05,0 70.71,31.58 70.71,70.52 0,38.94 -31.66,70.52 -70.71,70.52zm689.89 330.72l-40.88 128.04 -40.88 -12.99 -649 -458.76 81.77 -115.05 649 458.76zm-81.77 115.05l81.77 -115.05c31.85,22.52 39.38,66.54 16.8,98.3 -22.58,31.76 -66.72,39.27 -98.57,16.75zm-578.44 12.99l0 -141.03 619.32 0 0 141.03 -619.32 0zm0 -141.03l0 141.03c-39.05,0 -70.71,-31.58 -70.71,-70.52 0,-38.94 31.66,-70.52 70.71,-70.52z"/>
   <polygon id="1" class="fil7" points="11985.92,8931.22 10674.55,8931.22 10055.22,8931.22 10704.23,8472.46 11956.24,8472.46 12605.24,8931.22 "/>
  </g>
  <g>
   <polygon class="fil1 str17" points="10055.23,8931.22 12605.24,8931.22 12605.24,9007.93 10055.23,9007.93 "/>
   <polygon id="1" class="fil0" points="10055.23,8931.22 12605.24,8931.22 12605.24,9007.93 10055.23,9007.93 "/>
  </g>
  <g>
   <polygon class="fil1 str17" points="10104.12,9007.93 12556.35,9007.93 12556.35,9058.17 10104.12,9058.17 "/>
   <polygon id="1" class="fil0" points="10104.12,9007.93 12556.35,9007.93 12556.35,9058.17 10104.12,9058.17 "/>
  </g>
  <g>
   <polygon class="fil1 str17" points="10055.23,9058.17 10905.24,9058.17 10905.24,9785.32 10055.23,9785.32 "/>
   <polygon id="1" class="fil8" points="10055.23,9058.17 10905.24,9058.17 10905.24,9785.32 10055.23,9785.32 "/>
  </g>
  <g>
   <polygon class="fil1 str17" points="10905.24,9058.17 11755.24,9058.17 11755.24,9785.32 10905.24,9785.32 "/>
   <polygon id="1" class="fil8" points="10905.24,9058.17 11755.24,9058.17 11755.24,9785.32 10905.24,9785.32 "/>
  </g>
  <g>
   <polygon class="fil1 str17" points="11755.24,9058.17 12605.24,9058.17 12605.24,9785.32 11755.24,9785.32 "/>
   <polygon id="1" class="fil8" points="11755.24,9058.17 12605.24,9058.17 12605.24,9785.32 11755.24,9785.32 "/>
  </g>
  <g>
   <polygon class="fil1 str17" points="10055.23,9785.32 12605.24,9785.32 12605.24,9981 10055.23,9981 "/>
   <polygon id="1" class="fil0" points="10055.23,9785.32 12605.24,9785.32 12605.24,9981 10055.23,9981 "/>
  </g>
  <g>
   <path class="fil9" d="M10674.56 9910.49l1311.38 0 0 141.03 -1311.38 0 0 0 0 -141.03zm0 141.03c-38.83,0 -70.31,-31.58 -70.31,-70.52 0,-38.94 31.48,-70.52 70.31,-70.52l0 141.03zm-619.32 -141.03l619.32 0 0 141.03 -619.32 0 -46.96 -18.05 46.96 -122.98zm0 141.03c-38.83,0 -70.31,-31.58 -70.31,-70.52 0,-38.94 31.48,-70.52 70.31,-70.52l0 141.03zm602.04 566.36l-649 -584.41 93.92 -104.93 649 584.41 -46.96 122.98 -46.96 -18.05zm93.92 -104.93c28.89,26.01 31.29,70.61 5.36,99.58 -25.93,28.97 -70.39,31.37 -99.28,5.36l93.92 -104.93zm1205.05 122.98l-1252.01 0 0 -141.03 1252.01 0 46.96 122.98 -46.96 18.05zm0 -141.03c38.83,0 70.31,31.58 70.31,70.52 0,38.94 -31.48,70.52 -70.31,70.52l0 -141.03zm695.96 -461.43l-649 584.41 -93.92 -104.93 649 -584.41 46.96 -18.05 46.96 122.98zm-93.92 -104.93c28.89,-26.01 73.34,-23.62 99.28,5.36 25.93,28.97 23.54,73.56 -5.36,99.58l-93.92 -104.93zm-572.36 -18.05l619.32 0 0 141.03 -619.32 0 0 0 0 -141.03zm0 141.03c-38.83,0 -70.31,-31.58 -70.31,-70.52 0,-38.94 31.48,-70.52 70.31,-70.52l0 141.03z"/>
   <polygon id="1" class="fil7" points="11985.93,9981 10674.56,9981 10055.23,9981 10704.24,10565.41 11956.25,10565.41 12605.25,9981 "/>
  </g>
  <g>
   <polygon class="fil1 str17" points="10704.23,10565.41 11956.25,10565.41 11956.25,10716.19 10704.23,10716.19 "/>
   <polygon id="1" class="fil0" points="10704.23,10565.41 11956.25,10565.41 11956.25,10716.19 10704.23,10716.19 "/>
  </g>
  <g>
   <polygon class="fil1 str17" points="10704.23,10716.19 11956.25,10716.19 11956.25,11074.49 10704.23,11074.49 "/>
   <polygon id="1" class="fil7" points="10704.23,10716.19 11956.25,10716.19 11956.25,11074.49 10704.23,11074.49 "/>
  </g>
  <g>
   <path class="fil9" d="M10545.97 12303l0 -140.71 1568.56 0 0 140.71 -1568.56 0zm0 -140.71l0 140.71c-38.94,0 -70.51,-31.5 -70.51,-70.36 0,-38.86 31.57,-70.36 70.51,-70.36zm-740.78 140.71l-55.74 -113.44 55.74 -27.27 740.78 0 0 140.71 -740.78 0zm0 -140.71l0 140.71c-38.94,0 -70.51,-31.5 -70.51,-70.36 0,-38.86 31.57,-70.36 70.51,-70.36zm843.3 -1130.88l55.74 -27.27 55.74 113.44 -899.04 1158.15 -111.49 -86.17 899.04 -1158.15zm111.49 86.17l-111.49 -86.17c23.84,-30.71 68.14,-36.32 98.92,-12.53 30.78,23.79 36.41,67.99 12.57,98.7zm1196.29 -113.44l55.74 27.27 -55.74 113.44 -1252.03 0 0 -140.71 1252.03 0zm0 140.71l0 -140.71c38.94,0 70.51,31.5 70.51,70.36 0,38.86 -31.57,70.36 -70.51,70.36zm954.79 1044.71l-55.74 113.44 -55.74 -27.27 -899.04 -1158.15 111.49 -86.17 899.04 1158.15zm-111.49 86.17l111.49 -86.17c23.84,30.71 18.21,74.91 -12.57,98.7 -30.78,23.79 -75.08,18.18 -98.92,-12.53zm-685.03 27.27l0 -140.71 740.77 0 0 140.71 -740.77 0zm0 -140.71l0 140.71c-38.94,0 -70.51,-31.5 -70.51,-70.36 0,-38.86 31.57,-70.36 70.51,-70.36z"/>
   <polygon id="1" class="fil7" points="12114.53,12232.64 10545.97,12232.64 9805.18,12232.64 10704.23,11074.49 11956.26,11074.49 12855.3,12232.64 "/>
  </g>
  <g>
   <polygon class="fil1 str17" points="11330.24,12232.64 11017.24,11653.57 10704.23,11074.49 11330.24,11074.49 11956.26,11074.49 11643.25,11653.57 "/>
   <polygon id="1" class="fil0" points="11330.24,12232.64 11017.24,11653.57 10704.23,11074.49 11330.24,11074.49 11956.26,11074.49 11643.25,11653.57 "/>
  </g>
  <g>
   <polygon class="fil1 str17" points="11330.24,11950.93 11130.93,11582.18 10931.6,11213.44 11330.24,11213.44 11728.88,11213.44 11529.56,11582.18 "/>
   <polygon id="1" class="fil7" points="11330.24,11950.93 11130.93,11582.18 10931.6,11213.44 11330.24,11213.44 11728.88,11213.44 11529.56,11582.18 "/>
  </g>
  <g>
   <path class="fil1 str17" d="M11972.15 14411.41c-220.65,-640.88 -824.42,-1321.28 -1811.31,-2041.21 -86.39,144.69 -151.59,281.27 -195.63,409.77 360.75,777.87 564.35,1674.24 610.82,2689.1 598.58,-103.09 1071.01,-36.1 1417.28,200.96 276.96,-224.4 685.92,-293.15 1226.9,-206.24 6.67,-131.88 22.52,-228.81 47.55,-290.8 -446.28,-539.78 -878.15,-793.64 -1295.6,-761.59z"/>
  </g>
  <path id="1" class="fil0" d="M11972.15 14411.41c-220.65,-640.88 -824.42,-1321.28 -1811.31,-2041.21 -86.39,144.69 -151.59,281.27 -195.63,409.77 360.75,777.87 564.35,1674.24 610.82,2689.1 598.58,-103.09 1071.01,-36.1 1417.28,200.96 276.96,-224.4 685.92,-293.15 1226.9,-206.24 6.67,-131.88 22.52,-228.81 47.55,-290.8 -446.28,-539.78 -878.15,-793.64 -1295.6,-761.59z"/>
  <g style="clip-path:url(#id5)">
   <g>
    <path id="2" class="fil1 str19" d="M10660.6 15215.31c-42.8,102.65 -73.63,196.05 -92.5,280.21"/>
   </g>
  </g>
  <g>
   <path class="fil1 str17" d="M10660.6 15215.31c62.82,-1161.22 -103.76,-2109.59 -499.77,-2845.1 424.54,-263 970.2,-222.42 1351.17,100.48 356.37,-294.75 855.17,-345.89 1263.92,-129.57 207.53,1200.52 371.48,2144.48 491.82,2831.89 -584.3,-179.81 -1035.57,-91.67 -1353.82,264.41 -261.95,-271.8 -679.72,-345.84 -1253.33,-222.11z"/>
   <path id="1" class="fil0" d="M10660.6 15215.31c62.82,-1161.22 -103.76,-2109.59 -499.77,-2845.1 424.54,-263 970.2,-222.42 1351.17,100.48 356.37,-294.75 855.17,-345.89 1263.92,-129.57 207.53,1200.52 371.48,2144.48 491.82,2831.89 -584.3,-179.81 -1035.57,-91.67 -1353.82,264.41 -261.95,-271.8 -679.72,-345.84 -1253.33,-222.11z"/>
  </g>
  <g>
   <path class="fil1 str21" d="M10491.4 12380.68c328.33,-29.85 603.33,28.32 824.98,174.51"/>
  </g>
  <g>
   <path class="fil1 str21" d="M10523.13 12584.28c318.23,-75.69 583.52,-33.39 795.9,126.92"/>
  </g>
  <g>
   <path class="fil1 str21" d="M10589.23 12779.95c323.36,-73.92 565.73,-31.62 727.15,126.92"/>
  </g>
  <g>
   <path class="fil1 str21" d="M10623.61 12954.46c299.92,-62.52 530.85,-32.55 692.77,89.9"/>
  </g>
  <g>
   <path class="fil1 str21" d="M10692.35 13139.55c214.93,-80.69 415.01,-48.96 600.23,95.19"/>
  </g>
  <g>
   <path class="fil1 str21" d="M10742.59 13311.43c243.69,-46.39 434.07,-13.77 571.14,97.84"/>
  </g>
  <g>
   <path class="fil1 str21" d="M10787.56 13504.44c213.52,-46.17 389.79,-31.19 528.84,44.95"/>
  </g>
  <g>
   <path class="fil1 str21" d="M10853.67 13700.11c193.05,-67.17 356.11,-54.83 489.17,37.03"/>
  </g>
  <g>
   <path class="fil1 str17" d="M13045.71 13485.94c431.88,-621.16 1018.89,-1024.84 1761.01,-1211.03 -904.03,-10.55 -1933.49,426.61 -3088.39,1311.5 540.83,-243.59 983.29,-277.08 1327.38,-100.48z"/>
   <path id="1" class="fil0" d="M13045.71 13485.94c431.88,-621.16 1018.89,-1024.84 1761.01,-1211.03 -904.03,-10.55 -1933.49,426.61 -3088.39,1311.5 540.83,-243.59 983.29,-277.08 1327.38,-100.48z"/>
  </g>
 </g>
</svg>
